# xmcd CD database file
#
# Track frame offsets:
#	150
#	11882
#	25940
#	40182
#	54105
#	67190
#	81237
#	94242
#	109185
#	123955
#	137825
#	153607
#	167495
#	182230
#	194115
#	207292
#	222802
#	237857
#	250432
#	261890
#
# Disc length: 3685 seconds
#
# Revision: 0
# Processed by: cddbd v1.5.1PL0 Copyright (c) Steve Scherf et al.
# Submitted via: CDex 1.50beta10
#
DISCID=270e6314
DTITLE=Stéphane Grappelli - Masters Of Jazz CD2
DYEAR=1900
DGENRE=Jazz
TTITLE0=I'Ve Found A New Baby
TTITLE1=Sweet Georgia Brown
TTITLE2=Solitude
TTITLE3=In The Still Of The Night
TTITLE4=Ain't Misbehavin'
TTITLE5=I'se A Muggin'
TTITLE6=Charleston
TTITLE7=When I Look At You
TTITLE8=Stephen's Blues
TTITLE9=Sugar
TTITLE10=Stardust
TTITLE11=Liza
TTITLE12=Out Of Nowhere
TTITLE13=Baby
TTITLE14=You Took Advantage Of Me
TTITLE15=Chicago
TTITLE16=Libestraum n°3
TTITLE17=Echoes Of France
TTITLE18=Oui, Pour Vous Revoir
TTITLE19=Nuages
EXTD=
EXTT0=
EXTT1=
EXTT2=
EXTT3=
EXTT4=
EXTT5=
EXTT6=
EXTT7=
EXTT8=
EXTT9=
EXTT10=
EXTT11=
EXTT12=
EXTT13=
EXTT14=
EXTT15=
EXTT16=
EXTT17=
EXTT18=
EXTT19=
PLAYORDER=
